<svg width="100" height="100" viewBox="0 0 100 100" fill="none" xmlns="http://www.w3.org/2000/svg">
<path d="M34 50H66" stroke="black"/>
<path d="M16 50L32 50" stroke="black" stroke-width="2"/>
<circle cx="31" cy="50" r="3" fill="black"/>
<path d="M84 50L68 50" stroke="black" stroke-width="2"/>
<circle cx="69" cy="50" r="3" fill="black"/>
<path d="M50 50C50 48.9494 49.7931 47.9091 49.391 46.9385C48.989 45.9679 48.3997 45.086 47.6569 44.3431C46.914 43.6003 46.0321 43.011 45.0615 42.609C44.0909 42.2069 43.0506 42 42 42C40.9494 42 39.9091 42.2069 38.9385 42.609C37.9679 43.011 37.086 43.6003 36.3431 44.3431C35.6003 45.086 35.011 45.9679 34.609 46.9385C34.2069 47.9091 34 48.9494 34 50" stroke="black"/>
<path d="M66 50C66 51.0506 65.7931 52.0909 65.391 53.0615C64.989 54.0321 64.3997 54.914 63.6569 55.6569C62.914 56.3997 62.0321 56.989 61.0615 57.391C60.0909 57.7931 59.0506 58 58 58C56.9494 58 55.9091 57.7931 54.9385 57.391C53.9679 56.989 53.086 56.3997 52.3431 55.6569C51.6003 54.914 51.011 54.0321 50.609 53.0615C50.2069 52.0909 50 51.0506 50 50" stroke="black"/>
</svg>
