<svg width="100" height="100" viewBox="0 0 100 100" fill="none" xmlns="http://www.w3.org/2000/svg">
<circle cx="23" cy="23" r="22.5" transform="matrix(0 1 1 0 27 31)" stroke="black"/>
<path d="M50 31L50 23" stroke="black"/>
<path d="M36.9018 59V48.8182H43.2853V50.1406H38.438V53.2429H42.9522V54.5604H38.438V57.6776H43.345V59H36.9018ZM53.794 52.1293H52.2429C52.1832 51.7978 52.0722 51.5062 51.9098 51.2543C51.7474 51.0024 51.5485 50.7886 51.3132 50.6129C51.0779 50.4373 50.8144 50.3047 50.5227 50.2152C50.2344 50.1257 49.9278 50.081 49.603 50.081C49.0163 50.081 48.491 50.2285 48.027 50.5234C47.5663 50.8184 47.2017 51.2509 46.9332 51.821C46.6681 52.3911 46.5355 53.0871 46.5355 53.9091C46.5355 54.7377 46.6681 55.437 46.9332 56.0071C47.2017 56.5772 47.5679 57.008 48.032 57.2997C48.496 57.5914 49.018 57.7372 49.598 57.7372C49.9195 57.7372 50.2244 57.6941 50.5128 57.608C50.8045 57.5185 51.0679 57.3875 51.3033 57.2152C51.5386 57.0429 51.7375 56.8324 51.8999 56.5838C52.0656 56.3319 52.1799 56.0436 52.2429 55.7188L53.794 55.7237C53.7112 56.2242 53.5504 56.6849 53.3118 57.1058C53.0765 57.5234 52.7732 57.8847 52.402 58.1896C52.0341 58.4912 51.6132 58.7249 51.1392 58.8906C50.6652 59.0563 50.1482 59.1392 49.5881 59.1392C48.7064 59.1392 47.9209 58.9304 47.2315 58.5128C46.5421 58.0919 45.9986 57.4903 45.6009 56.7081C45.2064 55.9259 45.0092 54.9929 45.0092 53.9091C45.0092 52.822 45.2081 51.889 45.6058 51.1101C46.0036 50.3279 46.5471 49.728 47.2365 49.3104C47.9259 48.8894 48.7098 48.679 49.5881 48.679C50.1283 48.679 50.6321 48.7569 51.0994 48.9126C51.5701 49.0651 51.9927 49.2905 52.3672 49.5888C52.7417 49.8838 53.0516 50.245 53.2969 50.6726C53.5421 51.0968 53.7079 51.5824 53.794 52.1293ZM62.5229 52.0348C62.4268 51.7332 62.2975 51.4631 62.1351 51.2244C61.976 50.9825 61.7855 50.777 61.5634 50.608C61.3413 50.4356 61.0878 50.3047 60.8027 50.2152C60.521 50.1257 60.2111 50.081 59.873 50.081C59.2997 50.081 58.7826 50.2285 58.3219 50.5234C57.8612 50.8184 57.4966 51.2509 57.2282 51.821C56.963 52.3878 56.8304 53.0821 56.8304 53.9041C56.8304 54.7294 56.9647 55.4271 57.2331 55.9972C57.5016 56.5672 57.8695 56.9998 58.3368 57.2947C58.8042 57.5897 59.3361 57.7372 59.9327 57.7372C60.4862 57.7372 60.9685 57.6245 61.3794 57.3991C61.7937 57.1738 62.1136 56.8556 62.339 56.4446C62.5676 56.0303 62.682 55.5431 62.682 54.983L63.0797 55.0575H60.1664V53.7898H64.1685V54.9482C64.1685 55.8033 63.9862 56.5457 63.6216 57.1754C63.2604 57.8018 62.7599 58.2857 62.1202 58.6271C61.4838 58.9685 60.7547 59.1392 59.9327 59.1392C59.0113 59.1392 58.2026 58.9271 57.5066 58.5028C56.8139 58.0786 56.2736 57.477 55.8858 56.6982C55.498 55.916 55.3042 54.9879 55.3042 53.9141C55.3042 53.102 55.4168 52.3729 55.6422 51.7266C55.8676 51.0803 56.1841 50.5317 56.5918 50.081C57.0028 49.6269 57.485 49.2805 58.0385 49.0419C58.5953 48.8 59.2035 48.679 59.8631 48.679C60.4133 48.679 60.9254 48.7602 61.3993 48.9226C61.8766 49.085 62.3008 49.3153 62.6721 49.6136C63.0466 49.9119 63.3565 50.2666 63.6017 50.6776C63.847 51.0852 64.0127 51.5376 64.0989 52.0348H62.5229Z" fill="black"/>
</svg>
