<svg width="100" height="100" viewBox="0 0 100 100" fill="none" xmlns="http://www.w3.org/2000/svg">
<circle cx="23" cy="23" r="22.5" transform="matrix(0 1 1 0 27 31)" stroke="black"/>
<path d="M50 31L50 23" stroke="black"/>
<path d="M53.2661 52.0348C53.17 51.7332 53.0407 51.4631 52.8783 51.2244C52.7192 50.9825 52.5286 50.777 52.3066 50.608C52.0845 50.4356 51.8309 50.3047 51.5459 50.2152C51.2642 50.1257 50.9543 50.081 50.6162 50.081C50.0428 50.081 49.5258 50.2285 49.0651 50.5234C48.6044 50.8184 48.2398 51.2509 47.9713 51.821C47.7062 52.3878 47.5736 53.0821 47.5736 53.9041C47.5736 54.7294 47.7078 55.4271 47.9763 55.9972C48.2448 56.5672 48.6127 56.9998 49.08 57.2947C49.5473 57.5897 50.0793 57.7372 50.6759 57.7372C51.2294 57.7372 51.7116 57.6245 52.1226 57.3991C52.5369 57.1738 52.8567 56.8556 53.0821 56.4446C53.3108 56.0303 53.4252 55.5431 53.4252 54.983L53.8229 55.0575H50.9095V53.7898H54.9117V54.9482C54.9117 55.8033 54.7294 56.5457 54.3648 57.1754C54.0035 57.8018 53.503 58.2857 52.8634 58.6271C52.227 58.9685 51.4978 59.1392 50.6759 59.1392C49.7545 59.1392 48.9458 58.9271 48.2497 58.5028C47.557 58.0786 47.0168 57.477 46.629 56.6982C46.2412 55.916 46.0473 54.9879 46.0473 53.9141C46.0473 53.102 46.16 52.3729 46.3854 51.7266C46.6108 51.0803 46.9273 50.5317 47.335 50.081C47.7459 49.6269 48.2282 49.2805 48.7817 49.0419C49.3385 48.8 49.9467 48.679 50.6063 48.679C51.1565 48.679 51.6685 48.7602 52.1425 48.9226C52.6198 49.085 53.044 49.3153 53.4152 49.6136C53.7897 49.9119 54.0996 50.2666 54.3449 50.6776C54.5902 51.0852 54.7559 51.5376 54.8421 52.0348H53.2661Z" fill="black"/>
</svg>
