<svg width="100" height="100" viewBox="0 0 100 100" fill="none" xmlns="http://www.w3.org/2000/svg">
<path d="M21 69H43" stroke="black"/>
<circle cx="32" cy="69" r="2.5" stroke="black"/>
<path d="M61.4771 24.1211L77.0334 39.6774" stroke="black"/>
<circle cx="69.2549" cy="31.8994" r="2.5" transform="rotate(45 69.2549 31.8994)" stroke="black"/>
<path d="M68.9014 32.2529L31.7783 69.376" stroke="black"/>
<path d="M54.4059 34.0208L57.2344 36.8493C58.5344 38.1493 59.5656 39.6926 60.2692 41.3912C60.9727 43.0897 61.3349 44.9103 61.3349 46.7488C61.3349 48.5873 60.9727 50.4078 60.2692 52.1063C59.5656 53.8049 58.5344 55.3482 57.2343 56.6483C55.9343 57.9483 54.391 58.9795 52.6924 59.6831C50.9939 60.3866 49.1734 60.7488 47.3349 60.7488C45.4963 60.7488 43.6758 60.3866 41.9773 59.6831C40.2787 58.9795 38.7354 57.9483 37.4354 56.6483L34.6069 53.8198" stroke="black"/>
</svg>
