<svg width="100" height="100" viewBox="0 0 100 100" fill="none" xmlns="http://www.w3.org/2000/svg">
<rect width="100" height="100" fill="white"/>
<path d="M49.8232 50.0731C49.0804 49.3303 48.1984 48.741 47.2278 48.3389C46.2572 47.9369 45.2169 47.73 44.1664 47.73C43.1158 47.73 42.0755 47.9369 41.1049 48.3389C40.1343 48.741 39.2524 49.3303 38.5095 50.0731C37.7666 50.816 37.1774 51.6979 36.7753 52.6685C36.3733 53.6391 36.1664 54.6794 36.1664 55.73C36.1664 56.7806 36.3733 57.8208 36.7753 58.7914C37.1774 59.7621 37.7666 60.644 38.5095 61.3868L44.5199 67.3972" stroke="black"/>
<path d="M61.1369 38.7594C61.8798 39.5023 62.4691 40.3842 62.8711 41.3548C63.2732 42.3254 63.4801 43.3657 63.4801 44.4163C63.4801 45.4668 63.2732 46.5071 62.8711 47.4777C62.4691 48.4483 61.8798 49.3303 61.1369 50.0731C60.3941 50.816 59.5122 51.4053 58.5415 51.8073C57.5709 52.2093 56.5307 52.4163 55.4801 52.4163C54.4295 52.4163 53.3892 52.2093 52.4186 51.8073C51.448 51.4053 50.5661 50.816 49.8232 50.0731" stroke="black"/>
<path d="M38.6863 61.3135L61.3137 38.6861" stroke="black"/>
</svg>
