<svg width="100" height="100" viewBox="0 0 100 100" fill="none" xmlns="http://www.w3.org/2000/svg">
<rect width="100" height="100" fill="white"/>
<path d="M21 69H43" stroke="black"/>
<circle cx="32" cy="69" r="2.5" stroke="black"/>
<path d="M61.4767 24.1211L77.033 39.6774" stroke="black"/>
<circle cx="69.2549" cy="31.8994" r="2.5" transform="rotate(45 69.2549 31.8994)" stroke="black"/>
<path d="M68.9013 32.2529L31.7782 69.376" stroke="black"/>
<path d="M54.4056 34.0208L57.234 36.8493C58.5341 38.1493 59.5653 39.6926 60.2689 41.3912C60.9724 43.0897 61.3346 44.9103 61.3346 46.7488C61.3346 48.5873 60.9724 50.4078 60.2689 52.1063C59.5653 53.8049 58.5341 55.3482 57.234 56.6483C55.934 57.9483 54.3907 58.9795 52.6921 59.6831C50.9936 60.3866 49.1731 60.7488 47.3345 60.7488C45.496 60.7488 43.6755 60.3866 41.977 59.6831C40.2784 58.9795 38.7351 57.9483 37.4351 56.6483L34.6066 53.8198" stroke="black"/>
</svg>
