<svg width="100" height="100" viewBox="0 0 100 100" fill="none" xmlns="http://www.w3.org/2000/svg">
<path d="M39 23H61" stroke="black"/>
<circle cx="50" cy="23" r="2.5" stroke="black"/>
<path d="M39 76H61" stroke="black"/>
<circle cx="50" cy="76" r="2.5" stroke="black"/>
<path d="M50 23.5V76" stroke="black"/>
<path d="M41 35H45C46.8385 35 48.659 35.3621 50.3576 36.0657C52.0561 36.7693 53.5995 37.8005 54.8995 39.1005C56.1995 40.4005 57.2307 41.9439 57.9343 43.6424C58.6379 45.341 59 47.1615 59 49C59 50.8385 58.6379 52.659 57.9343 54.3576C57.2307 56.0561 56.1995 57.5995 54.8995 58.8995C53.5995 60.1995 52.0561 61.2307 50.3576 61.9343C48.659 62.6379 46.8385 63 45 63L41 63" stroke="black"/>
</svg>
