<svg width="100" height="100" viewBox="0 0 100 100" fill="none" xmlns="http://www.w3.org/2000/svg">
<path d="M49.8231 50.0731C49.0802 49.3303 48.1983 48.741 47.2277 48.3389C46.2571 47.9369 45.2168 47.73 44.1662 47.73C43.1157 47.73 42.0754 47.9369 41.1048 48.3389C40.1342 48.741 39.2523 49.3303 38.5094 50.0731C37.7665 50.816 37.1772 51.6979 36.7752 52.6685C36.3732 53.6391 36.1662 54.6794 36.1662 55.73C36.1662 56.7806 36.3732 57.8208 36.7752 58.7914C37.1772 59.7621 37.7665 60.644 38.5094 61.3868L44.5198 67.3972" stroke="black"/>
<path d="M61.1368 38.7594C61.8797 39.5023 62.469 40.3842 62.871 41.3548C63.2731 42.3254 63.48 43.3657 63.48 44.4163C63.48 45.4668 63.2731 46.5071 62.871 47.4777C62.469 48.4483 61.8797 49.3303 61.1368 50.0731C60.394 50.816 59.5121 51.4053 58.5414 51.8073C57.5708 52.2093 56.5306 52.4163 55.48 52.4163C54.4294 52.4163 53.3891 52.2093 52.4185 51.8073C51.4479 51.4053 50.566 50.816 49.8231 50.0731" stroke="black"/>
<path d="M38.6865 61.3135L61.3139 38.6861" stroke="black"/>
</svg>
